<?xml version="1.0" encoding="UTF-8"?> <svg xmlns="http://www.w3.org/2000/svg" width="60" height="60" viewBox="0 0 60 60" fill="none"> <circle cx="30" cy="30" r="30" fill="#147D31" fill-opacity="0.5"></circle> <path d="M18.0762 30.0244L24.5009 36.4491C24.7201 36.6684 24.8323 36.9439 24.8373 37.2758C24.8424 37.6077 24.7303 37.8883 24.5009 38.1177C24.2715 38.3471 23.9934 38.4618 23.6666 38.4618C23.3398 38.4618 23.0617 38.3471 22.8324 38.1177L15.7165 31.0018C15.5683 30.8536 15.4638 30.6973 15.4029 30.5329C15.342 30.3685 15.3115 30.1909 15.3115 30.0001C15.3115 29.8093 15.342 29.6316 15.4029 29.4672C15.4638 29.3028 15.5683 29.1465 15.7165 28.9983L22.8324 21.8825C23.0678 21.647 23.3474 21.5267 23.6712 21.5216C23.9949 21.5166 24.2796 21.6369 24.5253 21.8825C24.7709 22.1281 24.8937 22.4102 24.8937 22.7289C24.8937 23.0476 24.7709 23.3298 24.5253 23.5754L18.0762 30.0244ZM41.9237 29.9757L35.499 23.551C35.2798 23.3318 35.1676 23.0562 35.1626 22.7243C35.1575 22.3925 35.2696 22.1119 35.499 21.8825C35.7284 21.6531 36.0065 21.5384 36.3333 21.5384C36.6601 21.5384 36.9382 21.6531 37.1675 21.8825L44.2834 28.9983C44.4316 29.1465 44.5361 29.3028 44.597 29.4672C44.6579 29.6316 44.6884 29.8093 44.6884 30.0001C44.6884 30.1909 44.6579 30.3685 44.597 30.5329C44.5361 30.6973 44.4316 30.8536 44.2834 31.0018L37.1675 38.1177C36.9321 38.3531 36.6565 38.4693 36.3409 38.4663C36.0252 38.4633 35.7446 38.3389 35.499 38.0933C35.2534 37.8477 35.1306 37.5656 35.1306 37.2469C35.1306 36.9282 35.2534 36.646 35.499 36.4004L41.9237 29.9757Z" fill="white"></path> </svg> 