<?xml version="1.0" encoding="UTF-8"?> <svg xmlns="http://www.w3.org/2000/svg" width="60" height="60" viewBox="0 0 60 60" fill="none"> <circle cx="30" cy="30" r="30" fill="#147D31" fill-opacity="0.5"></circle> <path d="M17.8206 41.8749C17.0208 41.8749 16.3438 41.5978 15.7896 41.0437C15.2355 40.4895 14.9584 39.8125 14.9584 39.0127V20.9872C14.9584 20.1874 15.2355 19.5104 15.7896 18.9563C16.3438 18.4021 17.0208 18.125 17.8206 18.125H42.1794C42.9792 18.125 43.6562 18.4021 44.2104 18.9563C44.7645 19.5104 45.0416 20.1874 45.0416 20.9872V39.0127C45.0416 39.8125 44.7645 40.4895 44.2104 41.0437C43.6562 41.5978 42.9792 41.8749 42.1794 41.8749H17.8206ZM17.8206 39.5H42.1794C42.3013 39.5 42.4129 39.4492 42.5144 39.3477C42.6159 39.2462 42.6667 39.1345 42.6667 39.0127V23.6666H17.3333V39.0127C17.3333 39.1345 17.3841 39.2462 17.4856 39.3477C17.5871 39.4492 17.6988 39.5 17.8206 39.5Z" fill="white"></path> </svg> 