<?xml version="1.0" encoding="UTF-8"?> <svg xmlns="http://www.w3.org/2000/svg" width="60" height="60" viewBox="0 0 60 60" fill="none"> <circle cx="30" cy="30" r="30" fill="#147D31" fill-opacity="0.5"></circle> <path d="M17.8206 43.4582C17.0208 43.4582 16.3438 43.1811 15.7896 42.6269C15.2355 42.0728 14.9584 41.3958 14.9584 40.596V24.1538C14.9584 23.354 15.2355 22.677 15.7896 22.1228C16.3438 21.5687 17.0208 21.2916 17.8206 21.2916H24.4584V18.6122C24.4584 17.8124 24.7355 17.1354 25.2896 16.5813C25.8438 16.0271 26.5208 15.75 27.3206 15.75H32.6794C33.4792 15.75 34.1562 16.0271 34.7104 16.5813C35.2645 17.1354 35.5416 17.8124 35.5416 18.6122V21.2916H42.1794C42.9792 21.2916 43.6562 21.5687 44.2104 22.1228C44.7645 22.677 45.0416 23.354 45.0416 24.1538V40.596C45.0416 41.3958 44.7645 42.0728 44.2104 42.6269C43.6562 43.1811 42.9792 43.4582 42.1794 43.4582H17.8206ZM17.8206 41.0832H42.1794C42.3013 41.0832 42.4129 41.0325 42.5144 40.931C42.6159 40.8295 42.6667 40.7178 42.6667 40.596V24.1538C42.6667 24.032 42.6159 23.9203 42.5144 23.8188C42.4129 23.7173 42.3013 23.6665 42.1794 23.6665H17.8206C17.6988 23.6665 17.5871 23.7173 17.4856 23.8188C17.3841 23.9203 17.3333 24.032 17.3333 24.1538V40.596C17.3333 40.7178 17.3841 40.8295 17.4856 40.931C17.5871 41.0325 17.6988 41.0832 17.8206 41.0832ZM26.8333 21.2916H33.1667V18.6122C33.1667 18.4903 33.1159 18.3787 33.0144 18.2772C32.9129 18.1757 32.8012 18.1249 32.6794 18.1249H27.3206C27.1988 18.1249 27.0871 18.1757 26.9856 18.2772C26.8841 18.3787 26.8333 18.4903 26.8333 18.6122V21.2916Z" fill="white"></path> </svg> 