<?xml version="1.0" encoding="UTF-8"?> <svg xmlns="http://www.w3.org/2000/svg" width="60" height="60" viewBox="0 0 60 60" fill="none"> <circle cx="30" cy="30" r="30" fill="#147D31" fill-opacity="0.5"></circle> <path d="M32.7708 31.1264C31.6645 31.1264 30.7283 30.7433 29.962 29.977C29.1957 29.2107 28.8126 28.2744 28.8126 27.1681C28.8126 26.0619 29.1957 25.1256 29.962 24.3593C30.7283 23.593 31.6645 23.2099 32.7708 23.2099C33.8771 23.2099 34.8134 23.593 35.5797 24.3593C36.346 25.1256 36.7291 26.0619 36.7291 27.1681C36.7291 28.2744 36.346 29.2107 35.5797 29.977C34.8134 30.7433 33.8771 31.1264 32.7708 31.1264ZM22.327 36.0287C21.5399 36.0287 20.8661 35.7484 20.3056 35.1879C19.7451 34.6274 19.4648 33.9536 19.4648 33.1665V21.1698C19.4648 20.3827 19.7451 19.7089 20.3056 19.1484C20.8661 18.5879 21.5399 18.3076 22.327 18.3076H43.2147C44.0018 18.3076 44.6756 18.5879 45.2361 19.1484C45.7966 19.7089 46.0768 20.3827 46.0768 21.1698V33.1665C46.0768 33.9536 45.7966 34.6274 45.2361 35.1879C44.6756 35.7484 44.0018 36.0287 43.2147 36.0287H22.327ZM24.7019 33.6538H40.8398C40.8398 32.8641 41.12 32.1897 41.6805 31.6305C42.241 31.0712 42.9148 30.7916 43.7019 30.7916V23.5447C42.9123 23.5447 42.2379 23.2645 41.6786 22.704C41.1194 22.1435 40.8398 21.4697 40.8398 20.6826H24.7019C24.7019 21.4722 24.4217 22.1466 23.8612 22.7059C23.3006 23.2651 22.6268 23.5447 21.8398 23.5447V30.7916C22.6294 30.7916 23.3038 31.0718 23.8631 31.6324C24.4223 32.1929 24.7019 32.8667 24.7019 33.6538ZM40.1698 41.5703H16.7854C15.9983 41.5703 15.3245 41.29 14.764 40.7295C14.2035 40.169 13.9232 39.4952 13.9232 38.7082V24.2146C13.9232 23.8782 14.0371 23.5962 14.2647 23.3686C14.4925 23.141 14.7746 23.0272 15.1112 23.0272C15.4478 23.0272 15.7298 23.141 15.9571 23.3686C16.1845 23.5962 16.2981 23.8782 16.2981 24.2146V38.7082C16.2981 38.8299 16.3489 38.9416 16.4504 39.0431C16.5519 39.1446 16.6636 39.1953 16.7854 39.1953H40.1698C40.5063 39.1953 40.7883 39.3092 41.0159 39.5369C41.2435 39.7646 41.3573 40.0467 41.3573 40.3834C41.3573 40.72 41.2435 41.0019 41.0159 41.2293C40.7883 41.4566 40.5063 41.5703 40.1698 41.5703ZM22.327 33.6538H21.8398V20.6826H22.327C22.195 20.6826 22.0808 20.7308 21.9844 20.8272C21.888 20.9236 21.8398 21.0378 21.8398 21.1698V33.1665C21.8398 33.2985 21.888 33.4127 21.9844 33.5091C22.0808 33.6055 22.195 33.6538 22.327 33.6538Z" fill="white"></path> </svg> 