<?xml version="1.0" encoding="UTF-8"?> <svg xmlns="http://www.w3.org/2000/svg" width="60" height="60" viewBox="0 0 60 60" fill="none"> <circle cx="30" cy="30" r="30" fill="#147D31" fill-opacity="0.5"></circle> <path d="M19.4039 43.4583C18.6168 43.4583 17.943 43.178 17.3825 42.6175C16.822 42.057 16.5417 41.3832 16.5417 40.5961V19.4039C16.5417 18.6168 16.822 17.943 17.3825 17.3825C17.943 16.8219 18.6168 16.5417 19.4039 16.5417H26.4498C26.5492 15.6627 26.9329 14.9152 27.6007 14.2992C28.2685 13.6831 29.0709 13.375 30.0076 13.375C30.9444 13.375 31.7468 13.6831 32.4146 14.2992C33.0824 14.9152 33.461 15.6627 33.5503 16.5417H40.5961C41.3832 16.5417 42.057 16.8219 42.6175 17.3825C43.1781 17.943 43.4583 18.6168 43.4583 19.4039V40.5961C43.4583 41.3832 43.1781 42.057 42.6175 42.6175C42.057 43.178 41.3832 43.4583 40.5961 43.4583H19.4039ZM19.4039 41.0833H40.5961C40.718 41.0833 40.8296 41.0326 40.9311 40.9311C41.0326 40.8295 41.0834 40.7179 41.0834 40.5961V19.4039C41.0834 19.282 41.0326 19.1704 40.9311 19.0689C40.8296 18.9674 40.718 18.9166 40.5961 18.9166H19.4039C19.2821 18.9166 19.1705 18.9674 19.0689 19.0689C18.9675 19.1704 18.9167 19.282 18.9167 19.4039V40.5961C18.9167 40.7179 18.9675 40.8295 19.0689 40.9311C19.1705 41.0326 19.2821 41.0833 19.4039 41.0833ZM23.6667 37.3381H31.5834C31.9198 37.3381 32.2019 37.2242 32.4295 36.9965C32.657 36.7688 32.7708 36.4867 32.7708 36.1501C32.7708 35.8134 32.657 35.5315 32.4295 35.3041C32.2019 35.0768 31.9198 34.9631 31.5834 34.9631H23.6667C23.3303 34.9631 23.0482 35.077 22.8207 35.3047C22.5931 35.5324 22.4792 35.8145 22.4792 36.1511C22.4792 36.4877 22.5931 36.7697 22.8207 36.997C23.0482 37.2244 23.3303 37.3381 23.6667 37.3381ZM23.6667 31.1874H36.3334C36.6698 31.1874 36.9519 31.0736 37.1795 30.8459C37.407 30.6182 37.5208 30.336 37.5208 29.9994C37.5208 29.6628 37.407 29.3809 37.1795 29.1535C36.9519 28.9262 36.6698 28.8125 36.3334 28.8125H23.6667C23.3303 28.8125 23.0482 28.9263 22.8207 29.154C22.5931 29.3817 22.4792 29.6639 22.4792 30.0005C22.4792 30.3371 22.5931 30.6191 22.8207 30.8464C23.0482 31.0738 23.3303 31.1874 23.6667 31.1874ZM23.6667 25.0368H36.3334C36.6698 25.0368 36.9519 24.923 37.1795 24.6952C37.407 24.4676 37.5208 24.1854 37.5208 23.8488C37.5208 23.5122 37.407 23.2302 37.1795 23.0029C36.9519 22.7755 36.6698 22.6618 36.3334 22.6618H23.6667C23.3303 22.6618 23.0482 22.7757 22.8207 23.0034C22.5931 23.2311 22.4792 23.5133 22.4792 23.8499C22.4792 24.1865 22.5931 24.4685 22.8207 24.6958C23.0482 24.9231 23.3303 25.0368 23.6667 25.0368ZM30 17.8814C30.3431 17.8814 30.6268 17.7692 30.8511 17.5449C31.0754 17.3206 31.1875 17.0369 31.1875 16.6939C31.1875 16.3508 31.0754 16.0671 30.8511 15.8428C30.6268 15.6185 30.3431 15.5064 30 15.5064C29.657 15.5064 29.3733 15.6185 29.149 15.8428C28.9247 16.0671 28.8125 16.3508 28.8125 16.6939C28.8125 17.0369 28.9247 17.3206 29.149 17.5449C29.3733 17.7692 29.657 17.8814 30 17.8814Z" fill="white"></path> </svg> 