<?xml version="1.0" encoding="UTF-8"?> <svg xmlns="http://www.w3.org/2000/svg" width="60" height="60" viewBox="0 0 60 60" fill="none"> <circle cx="30" cy="30" r="30" fill="#147D31" fill-opacity="0.5"></circle> <path d="M28.0909 35.3281L34.9875 30.8979C35.3265 30.6826 35.496 30.3837 35.496 30.0011C35.496 29.6185 35.3265 29.3186 34.9875 29.1014L28.0909 24.6712C27.7357 24.4276 27.3713 24.4081 26.9978 24.6127C26.6243 24.8172 26.4375 25.1361 26.4375 25.5694V34.4299C26.4375 34.8631 26.6243 35.182 26.9978 35.3866C27.3713 35.5912 27.7357 35.5717 28.0909 35.3281ZM30.0027 45.0413C27.9223 45.0413 25.9668 44.6465 24.1362 43.8569C22.3057 43.0674 20.7133 41.9959 19.3592 40.6424C18.0051 39.2889 16.9331 37.6972 16.1432 35.8675C15.3533 34.0377 14.9584 32.0827 14.9584 30.0023C14.9584 27.9219 15.3532 25.9664 16.1427 24.1359C16.9323 22.3053 18.0038 20.713 19.3573 19.3589C20.7108 18.0048 22.3024 16.9328 24.1322 16.1429C25.9619 15.353 27.917 14.958 29.9974 14.958C32.0777 14.958 34.0332 15.3528 35.8638 16.1423C37.6943 16.9319 39.2867 18.0034 40.6408 19.3569C41.9949 20.7104 43.0669 22.3021 43.8568 24.1318C44.6467 25.9615 45.0416 27.9166 45.0416 29.997C45.0416 32.0774 44.6469 34.0328 43.8573 35.8634C43.0677 37.694 41.9962 39.2863 40.6427 40.6404C39.2892 41.9945 37.6976 43.0665 35.8678 43.8564C34.0381 44.6463 32.083 45.0413 30.0027 45.0413ZM30 42.6663C33.5361 42.6663 36.5313 41.4392 38.9854 38.9851C41.4396 36.5309 42.6667 33.5357 42.6667 29.9996C42.6667 26.4635 41.4396 23.4684 38.9854 21.0142C36.5313 18.5601 33.5361 17.333 30 17.333C26.4639 17.333 23.4688 18.5601 21.0146 21.0142C18.5604 23.4684 17.3333 26.4635 17.3333 29.9996C17.3333 33.5357 18.5604 36.5309 21.0146 38.9851C23.4688 41.4392 26.4639 42.6663 30 42.6663Z" fill="white"></path> </svg> 