<?xml version="1.0" encoding="UTF-8"?> <svg xmlns="http://www.w3.org/2000/svg" width="61" height="62" viewBox="0 0 61 62" fill="none"> <path d="M0.839966 22.64C1.15997 18 2.67997 14 5.39997 10.64C8.11997 7.22667 11.72 4.61333 16.2 2.8C20.7333 0.933334 25.8533 0 31.56 0C37 0 41.7466 0.826667 45.8 2.48C49.9066 4.13333 53.08 6.45333 55.32 9.44C57.6133 12.4267 58.76 15.8667 58.76 19.76C58.76 22.8 57.96 25.6267 56.36 28.24C54.76 30.8 52.2266 33.36 48.76 35.92C45.2933 38.48 40.7333 41.2 35.08 44.08L17.8 53.2L16.92 49.2H60.44V61.28H1.87997V50.72L27.64 35.92C31.7466 33.5733 34.9466 31.5733 37.24 29.92C39.5866 28.2133 41.24 26.64 42.2 25.2C43.16 23.76 43.64 22.2133 43.64 20.56C43.64 18.8533 43.16 17.3333 42.2 16C41.2933 14.6667 39.9066 13.6267 38.04 12.88C36.1733 12.1333 33.8266 11.76 31 11.76C27.64 11.76 24.8666 12.2667 22.68 13.28C20.4933 14.24 18.8666 15.5467 17.8 17.2C16.7333 18.8533 16.0933 20.6667 15.88 22.64H0.839966Z" fill="#225731"></path> </svg> 