<?xml version="1.0" encoding="UTF-8"?> <svg xmlns="http://www.w3.org/2000/svg" width="61" height="63" viewBox="0 0 61 63" fill="none"> <path d="M1.6 20.7593C1.86667 16.9726 3.2 13.5326 5.6 10.4393C8 7.34596 11.4133 4.89263 15.84 3.0793C20.32 1.21263 25.7333 0.279297 32.08 0.279297C37.52 0.279297 42.24 0.999297 46.24 2.4393C50.2933 3.82596 53.44 5.77263 55.68 8.2793C57.92 10.7326 59.04 13.6393 59.04 16.9993C59.04 19.7193 58.2133 22.1993 56.56 24.4393C54.96 26.626 52.4267 28.386 48.96 29.7193C45.4933 30.9993 41.0667 31.6126 35.68 31.5593V29.9593C40.8 29.6926 45.2 30.066 48.88 31.0793C52.56 32.0926 55.3867 33.6926 57.36 35.8793C59.3333 38.066 60.32 40.8126 60.32 44.1193C60.32 47.746 59.1733 50.9726 56.88 53.7993C54.5867 56.5726 51.2267 58.786 46.8 60.4393C42.4267 62.0393 37.0933 62.8393 30.8 62.8393C24.6667 62.8393 19.3067 61.986 14.72 60.2793C10.1867 58.5193 6.64 56.0926 4.08 52.9993C1.57333 49.8526 0.213333 46.1726 0 41.9593H15.04C15.4667 44.8926 16.96 47.1593 19.52 48.7593C22.1333 50.306 25.8933 51.0793 30.8 51.0793C35.44 51.0793 38.96 50.386 41.36 48.9993C43.8133 47.5593 45.04 45.5593 45.04 42.9993C45.04 41.506 44.64 40.2793 43.84 39.3193C43.04 38.306 41.68 37.5326 39.76 36.9993C37.84 36.466 35.1733 36.1993 31.76 36.1993H21.36V25.8793H31.76C36.1867 25.8793 39.3067 25.266 41.12 24.0393C42.9333 22.7593 43.84 21.106 43.84 19.0793C43.84 16.8393 42.7733 15.106 40.64 13.8793C38.56 12.6526 35.4133 12.0393 31.2 12.0393C26.8267 12.0393 23.4133 12.8126 20.96 14.3593C18.56 15.8526 17.12 17.986 16.64 20.7593H1.6Z" fill="#225731"></path> </svg> 