<?xml version="1.0" encoding="UTF-8"?> <svg xmlns="http://www.w3.org/2000/svg" width="59" height="62" viewBox="0 0 59 62" fill="none"> <path d="M7.52 0.55957H53.76V11.9196H12.08L18.16 9.03957L14.8 31.5996H10.96C12.1333 29.6262 13.7333 27.8129 15.76 26.1596C17.84 24.5062 20.3733 23.1729 23.36 22.1596C26.3467 21.1462 29.8133 20.6396 33.76 20.6396C38.88 20.6396 43.28 21.4929 46.96 23.1996C50.64 24.9062 53.4667 27.2529 55.44 30.2396C57.4667 33.2262 58.48 36.6662 58.48 40.5596C58.48 44.6662 57.3333 48.3196 55.04 51.5196C52.7467 54.7196 49.44 57.2529 45.12 59.1196C40.8533 60.9329 35.7333 61.8396 29.76 61.8396C23.8933 61.8396 18.8 60.9862 14.48 59.2796C10.16 57.5729 6.77333 55.2529 4.32 52.3196C1.86667 49.3329 0.426667 46.0262 0 42.3996H15.04C15.6267 44.7462 17.1733 46.6129 19.68 47.9996C22.24 49.3862 25.6 50.0796 29.76 50.0796C32.5867 50.0796 35.0133 49.7062 37.04 48.9596C39.0667 48.1596 40.64 47.0396 41.76 45.5996C42.88 44.1596 43.44 42.4529 43.44 40.4796C43.44 38.6129 42.9333 36.9596 41.92 35.5196C40.96 34.0796 39.4933 32.9596 37.52 32.1596C35.6 31.3596 33.2 30.9596 30.32 30.9596C27.92 30.9596 25.76 31.2262 23.84 31.7596C21.9733 32.2929 20.32 32.9862 18.88 33.8396C17.4933 34.6929 16.3467 35.5729 15.44 36.4796H2.48L7.52 0.55957Z" fill="#225731"></path> </svg> 