<?xml version="1.0" encoding="UTF-8"?> <svg xmlns="http://www.w3.org/2000/svg" width="62" height="64" viewBox="0 0 62 64" fill="none"> <path d="M32.2 0.55957C37.32 0.55957 41.8266 1.3329 45.72 2.87957C49.6666 4.42624 52.8666 6.5329 55.32 9.19957C57.7733 11.8129 59.2666 14.7996 59.8 18.1596H45.72C44.92 16.3462 43.5066 14.8529 41.48 13.6796C39.4533 12.4529 36.4933 11.8396 32.6 11.8396C28.44 11.8396 25 12.6129 22.28 14.1596C19.6133 15.7062 17.64 17.9196 16.36 20.7996C15.08 23.6262 14.44 27.1196 14.44 31.2796C14.44 35.7062 15.1333 39.4396 16.52 42.4796C17.96 45.5196 20.0666 47.8396 22.84 49.4396C25.6133 50.9862 29 51.7596 33 51.7596C35.8266 51.7596 38.2 51.3862 40.12 50.6396C42.0933 49.8396 43.56 48.7462 44.52 47.3596C45.5333 45.9729 46.04 44.4262 46.04 42.7196C46.04 41.0129 45.56 39.5196 44.6 38.2396C43.6933 36.9596 42.3333 35.9729 40.52 35.2796C38.7066 34.5329 36.3866 34.1596 33.56 34.1596C29.88 34.1596 26.36 35.0129 23 36.7196C19.6933 38.3729 16.76 40.7196 14.2 43.7596L8.83995 40.0796C10.5466 36.7729 12.7333 33.8396 15.4 31.2796C18.0666 28.6662 21.2133 26.6129 24.84 25.1196C28.4666 23.5729 32.5733 22.7996 37.16 22.7996C42.0666 22.7996 46.3066 23.6262 49.88 25.2796C53.5066 26.8796 56.28 29.1462 58.2 32.0796C60.1733 35.0129 61.16 38.3996 61.16 42.2396C61.16 46.2929 60.04 49.8929 57.8 53.0396C55.56 56.1862 52.3333 58.6662 48.12 60.4796C43.9066 62.2396 38.8133 63.1196 32.84 63.1196C25.5866 63.1196 19.5333 61.7862 14.68 59.1196C9.82662 56.4529 6.19995 52.7729 3.79995 48.0796C1.39995 43.3329 0.199951 37.9196 0.199951 31.8396C0.199951 25.7596 1.39995 20.3729 3.79995 15.6796C6.19995 10.9862 9.77328 7.30624 14.52 4.63957C19.32 1.91957 25.2133 0.55957 32.2 0.55957Z" fill="#225731"></path> </svg> 